<svg width="88" height="72" viewBox="0 0 88 72" fill="none" xmlns="http://www.w3.org/2000/svg">
    <path d="M87.1871 10.7338V20.9056C87.1856 19.1127 86.4727 17.3937 85.2049 16.126C83.9372 14.8582 82.2182 14.1453 80.4253 14.1438H54.0365C52.9403 14.1434 51.8666 13.833 50.9393 13.2485C50.0119 12.6639 49.2688 11.8291 48.7956 10.8403L45.1725 3.30344C45.0872 3.11973 44.9901 2.94175 44.8818 2.77063H79.224C81.336 2.77063 83.3614 3.6096 84.8548 5.10298C86.3482 6.59635 87.1871 8.6218 87.1871 10.7338Z" fill="#418BCA"/>
    <path d="M87.1875 20.9056V64.6253C87.188 66.4197 86.4761 68.1409 85.2081 69.4107C83.9402 70.6804 82.22 71.3948 80.4256 71.3969H6.76188C4.96747 71.3948 3.24728 70.6804 1.97935 69.4107C0.711421 68.1409 -0.000514466 66.4197 2.78934e-07 64.6253V6.77156C-0.000514466 4.97715 0.711421 3.25595 1.97935 1.9862C3.24728 0.716454 4.96747 0.0020542 6.76188 0H39.9319C40.925 0.000458269 41.9014 0.255357 42.768 0.740382C43.6346 1.22541 44.3625 1.92438 44.8822 2.77063C44.9905 2.94175 45.0876 3.11973 45.1728 3.30344L48.7959 10.8403C49.2691 11.8291 50.0123 12.6639 50.9396 13.2485C51.867 13.833 52.9407 14.1433 54.0369 14.1437H80.4256C82.2185 14.1453 83.9375 14.8582 85.2053 16.126C86.4731 17.3937 87.186 19.1127 87.1875 20.9056Z" fill="#418BCA" fill-opacity="0.3"/>
</svg>

